<?xml version="1.0" encoding="utf-8"?>
<!-- Generator: Adobe Illustrator 23.0.6, SVG Export Plug-In . SVG Version: 6.00 Build 0)  -->
<svg version="1.1" id="Ebene_1" xmlns="http://www.w3.org/2000/svg" xmlns:xlink="http://www.w3.org/1999/xlink" x="0px" y="0px"
	 viewBox="0 0 678.5 881" style="enable-background:new 0 0 678.5 881;" xml:space="preserve">
<style type="text/css">
	.st0{fill:#FFFFFF;}
	.st1{font-family:'ArialRoundedMTBold';}
	.st2{font-size:50px;}
	.st3{font-size:20px;}
	.st4{fill:none;stroke:#009BD4;stroke-width:3;stroke-miterlimit:10;}
	.st5{fill:#4AFCFF;}
</style>
<g id="logo-background">
	<g>
		<path class="st0" d="M109.55,80.65H72.09c-1.99,0-3.59-1.61-3.59-3.59V61.59c0-1.99,1.61-3.59,3.59-3.59h37.46
			c1.99,0,3.59,1.61,3.59,3.59v15.46C113.15,79.04,111.54,80.65,109.55,80.65z"/>
	</g>
	<g>
		<path class="st0" d="M140.3,97.5H99.58c-2.16,0-3.91-1.75-3.91-3.91v-16.8c0-2.16,1.75-3.91,3.91-3.91h40.71
			c2.16,0,3.91,1.75,3.91,3.91v16.8C144.21,95.75,142.46,97.5,140.3,97.5z"/>
	</g>
	<g>
		<path class="st0" d="M172.96,113h-37.46c-1.99,0-3.59-1.61-3.59-3.59V93.95c0-1.99,1.61-3.59,3.59-3.59h37.46
			c1.99,0,3.59,1.61,3.59,3.59v15.46C176.56,111.39,174.95,113,172.96,113z"/>
	</g>
</g>
<text transform="matrix(1 0 0 1 65.5 286)" class="st0 st1 st2">Get Secure Today</text>
<text transform="matrix(1 0 0 1 68.5 333)"><tspan x="0" y="0" class="st0 st1 st3">Our cryptocurrency-backend VPN offers you the highest </tspan><tspan x="0" y="24" class="st0 st1 st3">level of security.</tspan></text>
<g id="button">
	<rect x="63.5" y="470" class="st4" width="248" height="60"/>
	<text transform="matrix(1 0 0 1 138.5 507)" class="st5 st1 st3">secure me</text>
</g>
</svg>
