<?xml version="1.0" encoding="utf-8"?>
<!-- Generator: Adobe Illustrator 23.0.6, SVG Export Plug-In . SVG Version: 6.00 Build 0)  -->
<svg version="1.1" id="Ebene_1" xmlns="http://www.w3.org/2000/svg" xmlns:xlink="http://www.w3.org/1999/xlink" x="0px" y="0px"
	 viewBox="0 0 302 348" style="enable-background:new 0 0 302 348;" xml:space="preserve">
<style type="text/css">
	.st0{fill:#FCFCFC;}
	.st1{fill:#486585;}
	.st2{fill:#88BFFC;}
	.st3{fill:#4B698A;}
	.st4{fill:#8A8A8A;}
</style>
<g id="browser">
	<g>
		<path class="st0" d="M51.93,32.15c1.05,0.61,1.91,2.09,1.9,3.3l-0.03,8.93c0,1.21-0.86,1.7-1.92,1.09l-24.8-14.32
			c-1.05-0.61-1.9-2.08-1.9-3.29l0.03-8.93c0-1.21,0.86-1.7,1.91-1.1L51.93,32.15z"/>
	</g>
	<path class="st1" d="M225.82,280.19c0.04-0.01,0.08-0.02,0.12-0.03c0.12-0.04,0.23-0.1,0.34-0.16l8.46-4.91
		c-0.11,0.06-0.22,0.12-0.34,0.16c-0.04,0.01-0.08,0.02-0.12,0.03c-0.08,0.03-0.16,0.05-0.25,0.07c-0.05,0.01-0.1,0.01-0.15,0.02
		c-0.08,0.01-0.16,0.03-0.24,0.03c-0.06,0-0.12,0-0.17,0c-0.08,0-0.16,0-0.24,0c-0.06-0.01-0.13-0.02-0.19-0.03
		c-0.08-0.01-0.16-0.02-0.25-0.04c-0.07-0.01-0.13-0.04-0.2-0.05c-0.09-0.02-0.17-0.04-0.26-0.07c-0.07-0.02-0.14-0.06-0.21-0.08
		c-0.09-0.03-0.17-0.06-0.26-0.1c-0.07-0.03-0.15-0.08-0.23-0.12c-0.09-0.05-0.18-0.09-0.28-0.14l-53.46-30.86
		c-0.31-0.18-0.6-0.39-0.9-0.62c-0.09-0.08-0.18-0.16-0.28-0.24c-0.2-0.17-0.39-0.35-0.57-0.54c-0.08-0.08-0.16-0.17-0.24-0.26
		c-0.18-0.2-0.36-0.42-0.53-0.64c-0.07-0.09-0.14-0.18-0.21-0.27c-0.22-0.31-0.44-0.63-0.63-0.96c0,0,0,0,0-0.01
		c-0.19-0.33-0.36-0.68-0.52-1.03c-0.05-0.1-0.09-0.21-0.13-0.31c-0.11-0.26-0.2-0.52-0.29-0.77c-0.04-0.11-0.07-0.22-0.11-0.33
		c-0.09-0.31-0.16-0.62-0.21-0.93c-0.01-0.05-0.02-0.1-0.03-0.14c-0.06-0.38-0.09-0.76-0.09-1.13l0.06-21.54l-37.34-21.56
		c-0.26-0.15-0.52-0.33-0.77-0.53c-0.08-0.07-0.16-0.14-0.24-0.21c-0.17-0.15-0.33-0.3-0.49-0.46c-0.07-0.07-0.14-0.15-0.2-0.22
		c-0.16-0.17-0.31-0.36-0.45-0.55c-0.06-0.08-0.12-0.15-0.18-0.23c-0.19-0.27-0.37-0.54-0.54-0.82c0,0,0,0,0,0
		c-0.17-0.29-0.31-0.58-0.45-0.88c-0.04-0.09-0.08-0.18-0.11-0.27c-0.09-0.22-0.17-0.44-0.24-0.66c-0.03-0.1-0.06-0.19-0.09-0.29
		c-0.08-0.27-0.14-0.53-0.18-0.79c-0.01-0.04-0.02-0.08-0.03-0.13c-0.05-0.33-0.08-0.65-0.08-0.97l0.07-24.22l-39.76-22.95
		c-0.15-0.08-0.29-0.19-0.43-0.3c-0.04-0.04-0.09-0.08-0.13-0.11c-0.08-0.07-0.17-0.15-0.25-0.23c-0.18-0.19-0.35-0.39-0.51-0.61
		c-0.03-0.04-0.06-0.09-0.09-0.14c-0.13-0.2-0.25-0.4-0.35-0.61c-0.02-0.05-0.05-0.1-0.07-0.15c-0.11-0.24-0.2-0.49-0.27-0.74
		c-0.02-0.05-0.02-0.11-0.04-0.16c-0.05-0.22-0.09-0.44-0.1-0.65c0-0.07-0.02-0.14-0.02-0.2L90,95.73c0-0.16,0.02-0.31,0.04-0.45
		c0.01-0.04,0.02-0.08,0.03-0.12c0.02-0.08,0.04-0.15,0.07-0.23c0.04-0.1,0.09-0.19,0.14-0.27c0.02-0.04,0.05-0.08,0.07-0.11
		c0.09-0.11,0.18-0.2,0.3-0.26c0,0,0,0,0,0l0,0c0,0,0,0,0,0L82.2,99.2c-0.11,0.07-0.21,0.16-0.3,0.26
		c-0.03,0.03-0.05,0.07-0.07,0.11c-0.05,0.08-0.1,0.17-0.14,0.27c-0.01,0.02-0.03,0.04-0.03,0.07c-0.02,0.05-0.03,0.11-0.04,0.16
		c-0.01,0.04-0.02,0.08-0.03,0.12c-0.03,0.14-0.04,0.29-0.04,0.45l-0.11,38.77c0,0.03,0,0.07,0,0.1c0,0.03,0.01,0.07,0.02,0.1
		c0.01,0.21,0.05,0.43,0.1,0.65c0.01,0.05,0.02,0.11,0.04,0.16c0.07,0.25,0.16,0.5,0.27,0.75c0.02,0.05,0.05,0.1,0.07,0.15
		c0.1,0.21,0.22,0.42,0.35,0.61c0.03,0.05,0.06,0.09,0.09,0.14c0.16,0.22,0.33,0.42,0.51,0.61c0.01,0.02,0.03,0.03,0.04,0.05
		c0.07,0.06,0.13,0.12,0.2,0.18c0.04,0.04,0.09,0.08,0.13,0.12c0.14,0.11,0.28,0.21,0.43,0.3l39.76,22.95l-0.07,24.22
		c0,0.06,0,0.12,0,0.19c0.01,0.26,0.03,0.52,0.08,0.78c0.01,0.04,0.02,0.08,0.03,0.12c0.05,0.26,0.11,0.53,0.18,0.8
		c0.03,0.1,0.06,0.19,0.09,0.29c0.07,0.22,0.15,0.44,0.24,0.66c0.04,0.09,0.07,0.18,0.11,0.27c0.13,0.3,0.28,0.6,0.45,0.88
		c0,0,0,0,0,0c0.16,0.28,0.35,0.56,0.54,0.82c0.06,0.08,0.12,0.16,0.18,0.23c0.15,0.19,0.3,0.37,0.45,0.54
		c0.07,0.08,0.13,0.15,0.2,0.22c0.04,0.04,0.08,0.09,0.12,0.14c0.12,0.12,0.24,0.22,0.37,0.32c0.08,0.07,0.16,0.15,0.24,0.21
		c0.25,0.2,0.5,0.38,0.77,0.53l37.34,21.56l-0.06,21.54c0,0.07,0,0.14,0,0.22c0.01,0.3,0.04,0.61,0.09,0.91
		c0.01,0.05,0.02,0.1,0.03,0.14c0.05,0.31,0.13,0.62,0.21,0.93c0.03,0.11,0.07,0.22,0.1,0.33c0.08,0.26,0.18,0.52,0.29,0.78
		c0.04,0.11,0.08,0.21,0.13,0.31c0.16,0.35,0.33,0.7,0.52,1.03c0,0,0,0,0,0.01c0.19,0.33,0.4,0.65,0.63,0.96
		c0.07,0.09,0.14,0.18,0.21,0.27c0.17,0.22,0.34,0.43,0.53,0.64c0.08,0.09,0.16,0.17,0.24,0.26c0.05,0.05,0.09,0.11,0.14,0.16
		c0.14,0.14,0.29,0.25,0.43,0.38c0.09,0.08,0.18,0.17,0.28,0.24c0.29,0.23,0.59,0.44,0.9,0.62l53.46,30.86
		c0.01,0.01,0.02,0.01,0.03,0.02c0.08,0.05,0.16,0.08,0.24,0.12c0.08,0.04,0.15,0.08,0.23,0.12c0.09,0.04,0.17,0.07,0.25,0.1
		c0.07,0.03,0.15,0.06,0.22,0.09c0.09,0.03,0.17,0.05,0.25,0.07c0.07,0.02,0.14,0.04,0.2,0.06c0.08,0.02,0.16,0.03,0.25,0.04
		c0.06,0.01,0.13,0.02,0.19,0.03c0.08,0.01,0.16,0,0.23,0c0.06,0,0.12,0.01,0.18,0c0.08,0,0.15-0.02,0.23-0.03
		c0.05-0.01,0.11-0.01,0.16-0.02C225.66,280.24,225.74,280.22,225.82,280.19z"/>
	<g>
		<path class="st0" d="M275.7,161.35c1.4,0.81,2.54,2.77,2.53,4.39l-0.02,7.47c0,1.61-1.14,2.27-2.55,1.46L59.58,49.91
			c-1.4-0.81-2.54-2.78-2.54-4.4l0.02-7.47c0-1.61,1.15-2.26,2.56-1.45L275.7,161.35z"/>
	</g>
	<g>
		<path class="st2" d="M272.36,149.35c10.19,5.88,18.42,20.14,18.39,31.84l-0.43,149.99c-0.03,11.7-8.32,16.43-18.51,10.55
			L32.51,203.57c-10.19-5.88-18.42-20.14-18.39-31.84l0.43-149.99c0.03-11.7,8.32-16.42,18.51-10.54L272.36,149.35z M227.66,276.95
			l0.09-33.05c0.01-3.01-2.1-6.67-4.73-8.19l-36.67-21.17l0.06-22.32c0.01-2.58-1.81-5.72-4.05-7.01l-37.95-21.91l0.07-26.31
			c0-1.43-1-3.17-2.25-3.89L83.81,99.36c-1.25-0.72-2.26-0.15-2.27,1.28l-0.11,38.77c0,1.43,1.01,3.18,2.25,3.9l39.76,22.95
			l-0.07,24.22c-0.01,2.58,1.81,5.72,4.05,7.02l37.34,21.56l-0.06,21.54c-0.01,3.01,2.11,6.68,4.73,8.19l53.46,30.86
			C225.53,281.18,227.65,279.96,227.66,276.95 M278.21,173.21l0.02-7.47c0-1.61-1.13-3.58-2.53-4.39L59.61,36.59
			c-1.4-0.81-2.55-0.16-2.56,1.45l-0.02,7.47c0,1.61,1.13,3.59,2.54,4.4l216.09,124.76C277.07,175.48,278.21,174.82,278.21,173.21
			 M53.8,44.38l0.03-8.93c0-1.21-0.85-2.69-1.9-3.3l-24.8-14.32c-1.05-0.61-1.91-0.12-1.91,1.09l-0.03,8.93
			c0,1.21,0.84,2.68,1.9,3.29l24.8,14.32C52.94,46.08,53.8,45.59,53.8,44.38"/>
	</g>
	<path class="st3" d="M298.33,330.55c0.04-0.19,0.08-0.37,0.11-0.56c0.07-0.4,0.13-0.82,0.18-1.25c0.02-0.19,0.05-0.37,0.06-0.56
		c0.05-0.62,0.09-1.25,0.09-1.91l0.43-149.99c0-0.28,0-0.56-0.01-0.85c-0.01-0.33-0.04-0.67-0.06-1c-0.01-0.17-0.02-0.34-0.03-0.51
		c-0.06-0.67-0.14-1.35-0.25-2.04c-0.02-0.14-0.05-0.29-0.08-0.43c-0.09-0.55-0.2-1.1-0.32-1.65c-0.05-0.22-0.1-0.44-0.16-0.66
		c-0.12-0.51-0.26-1.02-0.41-1.54c-0.06-0.19-0.11-0.39-0.17-0.58c-0.21-0.69-0.44-1.38-0.69-2.07c-0.04-0.1-0.08-0.19-0.11-0.29
		c-0.22-0.59-0.46-1.19-0.72-1.78c-0.09-0.21-0.19-0.43-0.28-0.64c-0.22-0.5-0.45-0.99-0.7-1.48c-0.1-0.2-0.19-0.4-0.3-0.6
		c-0.34-0.67-0.69-1.33-1.07-1.98c-0.01-0.02-0.02-0.03-0.03-0.05c-0.37-0.63-0.75-1.25-1.15-1.87c-0.12-0.19-0.25-0.38-0.38-0.57
		c-0.3-0.45-0.61-0.9-0.93-1.34c-0.14-0.19-0.27-0.38-0.41-0.56c-0.4-0.53-0.8-1.05-1.22-1.56c-0.05-0.06-0.1-0.13-0.16-0.2
		c-0.47-0.56-0.95-1.11-1.45-1.64c-0.14-0.15-0.29-0.3-0.43-0.45c-0.21-0.22-0.42-0.45-0.64-0.67c-0.14-0.14-0.29-0.27-0.43-0.41
		c-0.21-0.2-0.42-0.4-0.64-0.6c-0.34-0.31-0.69-0.61-1.03-0.9c-0.21-0.18-0.43-0.36-0.64-0.53c-0.38-0.3-0.77-0.59-1.16-0.87
		c-0.19-0.14-0.37-0.28-0.57-0.41c-0.58-0.4-1.17-0.78-1.77-1.12L41.51,6.28c-0.04-0.02-0.08-0.05-0.12-0.07
		c-0.15-0.08-0.29-0.16-0.43-0.23c-0.15-0.08-0.31-0.17-0.46-0.25c-0.16-0.08-0.33-0.16-0.49-0.24c-0.15-0.07-0.3-0.15-0.45-0.22
		c-0.16-0.07-0.32-0.14-0.48-0.21c-0.15-0.06-0.3-0.13-0.44-0.19c-0.16-0.06-0.32-0.12-0.47-0.18c-0.15-0.05-0.29-0.11-0.44-0.16
		c-0.16-0.05-0.31-0.1-0.47-0.15c-0.14-0.04-0.28-0.09-0.43-0.13c-0.15-0.04-0.31-0.08-0.46-0.11c-0.14-0.03-0.28-0.07-0.42-0.1
		c-0.15-0.03-0.3-0.06-0.45-0.08c-0.14-0.02-0.27-0.05-0.41-0.07c-0.15-0.02-0.3-0.04-0.44-0.05c-0.13-0.02-0.27-0.04-0.4-0.05
		c-0.15-0.01-0.29-0.02-0.43-0.02c-0.13-0.01-0.26-0.02-0.38-0.02c-0.15,0-0.29,0-0.43,0.01c-0.12,0-0.24,0-0.36,0.01
		c-0.14,0.01-0.28,0.02-0.42,0.04c-0.12,0.01-0.24,0.02-0.35,0.03c-0.14,0.02-0.27,0.04-0.4,0.07c-0.12,0.02-0.23,0.03-0.35,0.06
		c-0.14,0.03-0.27,0.07-0.41,0.1c-0.1,0.03-0.21,0.05-0.31,0.08c-0.14,0.04-0.28,0.09-0.42,0.14c-0.09,0.03-0.19,0.06-0.28,0.09
		c-0.15,0.06-0.29,0.12-0.44,0.19c-0.08,0.03-0.15,0.06-0.23,0.1c-0.22,0.1-0.43,0.22-0.64,0.34L19.93,9.9
		c0.21-0.12,0.42-0.23,0.64-0.34c0.07-0.03,0.15-0.06,0.22-0.09c0.15-0.07,0.3-0.13,0.45-0.19c0.09-0.03,0.18-0.06,0.27-0.09
		c0.14-0.05,0.28-0.1,0.43-0.14c0.1-0.03,0.21-0.05,0.31-0.08c0.14-0.03,0.27-0.07,0.41-0.1c0.11-0.02,0.23-0.04,0.35-0.06
		c0.13-0.02,0.27-0.05,0.4-0.07c0.12-0.01,0.24-0.02,0.35-0.03c0.14-0.01,0.28-0.03,0.42-0.04c0.12-0.01,0.24,0,0.36-0.01
		c0.14,0,0.29-0.01,0.43-0.01c0.13,0,0.26,0.01,0.38,0.02c0.14,0.01,0.29,0.01,0.43,0.02c0.13,0.01,0.26,0.03,0.4,0.05
		c0.15,0.02,0.29,0.03,0.44,0.05c0.13,0.02,0.27,0.05,0.41,0.07c0.15,0.03,0.3,0.05,0.45,0.08c0.14,0.03,0.28,0.07,0.42,0.1
		c0.15,0.04,0.31,0.07,0.46,0.11c0.14,0.04,0.28,0.09,0.43,0.13c0.16,0.05,0.31,0.09,0.47,0.15c0.14,0.05,0.29,0.11,0.44,0.16
		c0.16,0.06,0.31,0.11,0.47,0.18c0.15,0.06,0.29,0.12,0.44,0.19c0.16,0.07,0.32,0.13,0.48,0.21c0.15,0.07,0.3,0.14,0.45,0.22
		c0.16,0.08,0.33,0.16,0.49,0.24c0.15,0.08,0.3,0.16,0.45,0.24c0.19,0.1,0.37,0.2,0.56,0.31l239.3,138.16
		c0.6,0.34,1.19,0.72,1.77,1.12c0.19,0.13,0.37,0.27,0.56,0.41c0.39,0.28,0.78,0.57,1.16,0.88c0.22,0.17,0.43,0.35,0.64,0.53
		c0.35,0.29,0.69,0.59,1.03,0.9c0.22,0.2,0.43,0.4,0.64,0.6c0.36,0.35,0.72,0.7,1.07,1.07c0.14,0.15,0.29,0.3,0.43,0.45
		c0.49,0.53,0.98,1.08,1.45,1.64c0.05,0.06,0.1,0.13,0.16,0.2c0.42,0.51,0.82,1.03,1.22,1.56c0.14,0.18,0.27,0.37,0.41,0.56
		c0.32,0.44,0.63,0.89,0.93,1.34c0.13,0.19,0.25,0.38,0.38,0.57c0.4,0.61,0.78,1.23,1.15,1.86c0.01,0.02,0.02,0.03,0.03,0.05
		c0.37,0.65,0.73,1.31,1.07,1.98c0.1,0.2,0.2,0.4,0.3,0.6c0.24,0.49,0.47,0.98,0.7,1.48c0.1,0.21,0.19,0.42,0.28,0.64
		c0.25,0.59,0.49,1.18,0.71,1.77c0.04,0.1,0.08,0.2,0.12,0.29c0.25,0.69,0.48,1.38,0.69,2.07c0.06,0.19,0.11,0.39,0.17,0.58
		c0.15,0.51,0.29,1.03,0.41,1.54c0.05,0.22,0.11,0.44,0.16,0.66c0.12,0.55,0.23,1.11,0.32,1.66c0.02,0.14,0.05,0.29,0.08,0.43
		c0.11,0.68,0.19,1.36,0.25,2.04c0.01,0.17,0.02,0.34,0.03,0.51c0.04,0.62,0.08,1.24,0.07,1.85l-0.43,149.99
		c0,0.66-0.04,1.29-0.09,1.91c-0.02,0.19-0.04,0.37-0.06,0.56c-0.05,0.43-0.11,0.84-0.18,1.25c-0.03,0.19-0.07,0.38-0.11,0.56
		c-0.09,0.41-0.19,0.81-0.31,1.2c-0.04,0.13-0.07,0.27-0.12,0.4c-0.16,0.48-0.34,0.93-0.53,1.36c-0.04,0.09-0.09,0.18-0.13,0.27
		c-0.21,0.43-0.43,0.85-0.68,1.24c-0.02,0.03-0.04,0.05-0.06,0.08c-0.24,0.37-0.5,0.71-0.78,1.03c-0.05,0.06-0.1,0.12-0.16,0.18
		c-0.29,0.32-0.59,0.61-0.91,0.89c-0.06,0.05-0.13,0.11-0.2,0.16c-0.34,0.27-0.69,0.52-1.06,0.74l8.46-4.91
		c0.37-0.22,0.72-0.47,1.06-0.74c0.07-0.05,0.13-0.1,0.2-0.16c0.32-0.27,0.63-0.57,0.91-0.89c0.05-0.06,0.1-0.12,0.16-0.19
		c0.27-0.32,0.54-0.66,0.78-1.03c0.02-0.03,0.04-0.06,0.06-0.08c0.25-0.39,0.47-0.8,0.68-1.24c0.04-0.09,0.09-0.18,0.13-0.27
		c0.18-0.39,0.35-0.8,0.49-1.23c0.01-0.04,0.02-0.09,0.04-0.13c0.04-0.13,0.08-0.27,0.12-0.4
		C298.14,331.36,298.24,330.96,298.33,330.55z"/>
</g>
<g id="logo">
	<g>
		<path class="st0" d="M64.12,162.87c1.25,0.72,2.26,2.46,2.25,3.9l-0.07,26.3l37.94,21.91c2.25,1.3,4.06,4.44,4.05,7.02
			l-0.06,22.32l36.67,21.17c2.62,1.52,4.74,5.18,4.73,8.19l-0.09,33.05c-0.01,3.02-2.14,4.23-4.76,2.71l-53.46-30.86
			c-2.62-1.51-4.74-5.17-4.73-8.19l0.06-21.54l-37.34-21.56c-2.25-1.3-4.06-4.44-4.05-7.02l0.07-24.22L5.56,173.09
			c-1.25-0.72-2.25-2.46-2.25-3.9l0.11-38.76c0-1.44,1.02-2.01,2.26-1.3L64.12,162.87z"/>
	</g>
	<path class="st4" d="M157.99,301.82l0.09-33.05c0-0.07,0-0.14,0-0.22c-0.01-0.3-0.04-0.6-0.09-0.91c-0.01-0.05-0.02-0.1-0.03-0.15
		c-0.05-0.31-0.13-0.62-0.21-0.93c-0.03-0.11-0.07-0.22-0.1-0.33c-0.08-0.26-0.18-0.52-0.29-0.77c-0.04-0.11-0.08-0.21-0.13-0.31
		c-0.16-0.35-0.33-0.69-0.52-1.03c0,0-0.01-0.01-0.01-0.01c-0.19-0.33-0.4-0.65-0.62-0.95c-0.07-0.09-0.14-0.18-0.21-0.27
		c-0.17-0.22-0.35-0.43-0.53-0.64c-0.08-0.09-0.15-0.17-0.24-0.26c-0.05-0.05-0.09-0.11-0.14-0.16c-0.14-0.14-0.29-0.26-0.43-0.38
		c-0.09-0.08-0.18-0.17-0.28-0.24c-0.29-0.23-0.59-0.44-0.9-0.62l-36.67-21.17l0.06-22.32c0-0.06,0-0.12,0-0.19
		c-0.01-0.26-0.03-0.52-0.08-0.78c-0.01-0.04-0.02-0.08-0.03-0.12c-0.05-0.26-0.11-0.53-0.18-0.8c-0.03-0.1-0.06-0.19-0.09-0.28
		c-0.07-0.22-0.15-0.44-0.25-0.66c-0.04-0.09-0.07-0.18-0.11-0.27c-0.13-0.3-0.28-0.6-0.45-0.88c0-0.01-0.01-0.01-0.01-0.02
		c-0.16-0.28-0.34-0.55-0.53-0.81c-0.06-0.08-0.12-0.16-0.18-0.24c-0.15-0.19-0.3-0.37-0.45-0.54c-0.07-0.07-0.13-0.15-0.2-0.22
		c-0.04-0.04-0.08-0.09-0.12-0.13c-0.12-0.12-0.25-0.22-0.37-0.33c-0.08-0.07-0.16-0.15-0.24-0.21c-0.25-0.2-0.51-0.38-0.77-0.53
		l-37.94-21.91l0.07-26.3c0-0.03,0-0.07,0-0.1c0-0.03-0.01-0.07-0.01-0.1c-0.01-0.21-0.05-0.43-0.1-0.65
		c-0.01-0.05-0.02-0.11-0.04-0.16c-0.07-0.25-0.16-0.5-0.27-0.74c-0.02-0.05-0.05-0.1-0.07-0.14c-0.1-0.21-0.22-0.41-0.35-0.61
		c-0.03-0.05-0.06-0.09-0.09-0.14c-0.16-0.22-0.33-0.42-0.51-0.61c-0.01-0.01-0.03-0.03-0.04-0.05c-0.07-0.07-0.14-0.12-0.21-0.18
		c-0.04-0.04-0.09-0.08-0.13-0.12c-0.14-0.11-0.28-0.21-0.43-0.3l-58.43-33.74c0,0-0.01-0.01-0.01-0.01
		c-0.09-0.05-0.17-0.08-0.25-0.11c-0.06-0.03-0.13-0.07-0.19-0.09c-0.09-0.03-0.17-0.04-0.25-0.06c-0.06-0.01-0.11-0.03-0.17-0.04
		c-0.09-0.01-0.18,0-0.26,0.01c-0.04,0-0.08,0-0.12,0.01c-0.12,0.02-0.23,0.07-0.33,0.13l-8.46,4.91c0.1-0.06,0.21-0.1,0.33-0.13
		c0.04-0.01,0.08,0,0.12-0.01c0.09-0.01,0.17-0.02,0.26-0.01c0.05,0,0.11,0.03,0.17,0.04c0.08,0.02,0.16,0.03,0.25,0.05
		c0.06,0.02,0.13,0.06,0.2,0.09c0.09,0.04,0.17,0.07,0.26,0.12l58.43,33.74c0.15,0.08,0.29,0.19,0.43,0.3
		c0.05,0.04,0.09,0.08,0.13,0.12c0.08,0.07,0.17,0.15,0.25,0.23c0.18,0.19,0.35,0.39,0.51,0.61c0.03,0.04,0.06,0.09,0.09,0.14
		c0.13,0.2,0.25,0.4,0.35,0.61c0.02,0.05,0.05,0.1,0.07,0.15c0.11,0.24,0.2,0.49,0.27,0.74c0.02,0.05,0.02,0.11,0.04,0.16
		c0.05,0.22,0.08,0.44,0.1,0.65c0,0.07,0.02,0.14,0.02,0.2l-0.07,26.3l37.94,21.91c0.26,0.15,0.52,0.33,0.77,0.53
		c0.08,0.06,0.16,0.14,0.24,0.21c0.17,0.15,0.33,0.3,0.49,0.46c0.07,0.07,0.13,0.15,0.2,0.22c0.16,0.17,0.31,0.36,0.45,0.55
		c0.06,0.08,0.12,0.15,0.18,0.23c0.19,0.26,0.37,0.54,0.54,0.82c0,0,0,0.01,0.01,0.01c0.17,0.29,0.31,0.58,0.45,0.88
		c0.04,0.09,0.08,0.18,0.11,0.27c0.09,0.22,0.17,0.44,0.24,0.66c0.03,0.1,0.06,0.19,0.09,0.29c0.08,0.27,0.14,0.53,0.18,0.8
		c0.01,0.04,0.02,0.08,0.03,0.12c0.05,0.33,0.08,0.65,0.08,0.97l-0.06,22.32l36.67,21.17c0.31,0.18,0.61,0.39,0.9,0.62
		c0.09,0.08,0.18,0.16,0.28,0.24c0.2,0.17,0.39,0.35,0.57,0.54c0.08,0.08,0.16,0.17,0.24,0.26c0.18,0.2,0.36,0.42,0.53,0.64
		c0.07,0.09,0.14,0.18,0.21,0.27c0.22,0.31,0.43,0.63,0.63,0.96c0,0,0,0.01,0.01,0.01c0.19,0.33,0.36,0.68,0.52,1.03
		c0.05,0.1,0.09,0.21,0.13,0.31c0.11,0.26,0.2,0.52,0.29,0.78c0.04,0.11,0.07,0.22,0.1,0.33c0.09,0.31,0.16,0.62,0.21,0.93
		c0.01,0.05,0.02,0.1,0.03,0.14c0.06,0.38,0.09,0.76,0.09,1.13l-0.09,33.05c0,0.34-0.04,0.65-0.09,0.95
		c-0.02,0.09-0.04,0.17-0.06,0.26c-0.05,0.22-0.11,0.42-0.19,0.61c-0.02,0.04-0.03,0.09-0.05,0.13c-0.11,0.22-0.23,0.41-0.38,0.58
		c-0.03,0.03-0.06,0.07-0.09,0.1c-0.16,0.17-0.32,0.31-0.51,0.42l8.46-4.91c0.19-0.11,0.36-0.26,0.51-0.42
		c0.03-0.03,0.06-0.06,0.09-0.1c0.14-0.17,0.27-0.36,0.38-0.58c0.02-0.04,0.04-0.09,0.05-0.13c0.04-0.09,0.08-0.17,0.11-0.26
		c0.04-0.11,0.05-0.23,0.08-0.35c0.02-0.09,0.05-0.17,0.06-0.26C157.96,302.47,157.99,302.16,157.99,301.82z"/>
</g>
</svg>
